<?xml version="1.0" standalone="no"?>
<!DOCTYPE svg PUBLIC "-//W3C//DTD SVG 20010904//EN"
 "http://www.w3.org/TR/2001/REC-SVG-20010904/DTD/svg10.dtd">
<svg version="1.0" xmlns="http://www.w3.org/2000/svg"
 width="512.000000pt" height="512.000000pt" viewBox="0 0 512.000000 512.000000"
 preserveAspectRatio="xMidYMid meet">

<g transform="translate(0.000000,512.000000) scale(0.100000,-0.100000)"
fill="#000000" stroke="none">
<path d="M2620 4319 c0 -5 -26 -9 -59 -9 -62 0 -74 -7 -85 -52 -9 -39 -30 -35
-48 10 l-15 39 -113 7 c-88 6 -116 4 -125 -6 -11 -11 -24 -140 -25 -250 0 -16
-5 -28 -10 -28 -8 0 -9 45 -4 140 l7 140 -62 0 c-33 0 -61 -3 -61 -7 -3 -70
-21 -267 -25 -271 -11 -11 -11 6 -4 133 5 71 4 134 0 138 -15 15 -101 13 -110
-2 -10 -15 -23 -191 -25 -321 l-1 -75 75 1 c41 0 133 4 203 9 101 6 130 11
136 24 5 9 11 75 15 146 4 72 11 134 15 138 4 4 15 -9 23 -30 8 -21 25 -62 36
-90 l22 -53 -30 -34 c-17 -18 -30 -38 -30 -43 0 -5 15 -24 34 -42 28 -27 37
-31 54 -22 37 20 100 106 147 204 25 53 48 97 49 97 1 0 2 -66 2 -147 l-1
-148 54 2 c37 1 59 6 66 17 7 9 20 13 33 9 12 -3 28 0 36 6 11 9 15 7 19 -8 6
-25 84 -39 117 -21 20 11 22 10 16 -5 -16 -42 51 -62 78 -24 13 20 25 22 124
23 96 1 114 4 139 22 l29 22 10 -22 c7 -17 19 -22 61 -24 l52 -3 3 57 3 57 48
12 c26 7 61 25 77 40 36 34 36 33 9 -56 -28 -91 -24 -99 47 -99 53 0 56 2 67
30 15 40 52 42 62 3 8 -35 21 -43 70 -43 71 0 72 2 46 152 -40 224 -51 250
-115 250 -63 0 -72 -8 -107 -95 l-34 -82 -6 60 c-8 75 -46 115 -108 115 -40 0
-123 -14 -153 -25 -12 -5 -18 -2 -18 8 0 8 -6 17 -13 20 -24 9 -239 -6 -243
-17 -4 -10 -24 -206 -25 -246 -1 -11 -14 -15 -55 -16 l-54 0 0 121 c0 137 -5
148 -71 160 l-35 7 -29 -67 c-29 -70 -39 -71 -50 -5 -3 20 -15 41 -26 48 -26
17 -109 32 -109 21z m-645 -164 l-7 -145 25 0 c24 0 24 0 31 138 4 75 11 141
15 145 5 5 26 7 47 5 l39 -3 -4 -137 c-3 -133 -3 -138 17 -138 27 0 32 18 32
109 0 43 3 99 6 125 l7 46 50 0 49 0 -7 -137 c-4 -76 -10 -158 -14 -183 l-6
-45 -55 -2 c-30 -1 -115 -7 -189 -14 -73 -6 -137 -7 -140 -2 -8 8 2 229 14
331 l6 52 46 0 45 0 -7 -145z m449 83 c12 -31 24 -60 28 -63 3 -3 17 22 31 57
l25 63 51 3 c44 3 51 1 51 -16 0 -10 -29 -76 -64 -148 -62 -125 -124 -214
-150 -214 -7 0 -24 13 -39 28 l-27 28 30 29 c16 16 30 36 30 46 0 9 -20 65
-45 124 -25 59 -42 112 -39 117 3 5 26 8 51 6 46 -3 46 -3 67 -60z m294 46
c12 -8 22 -20 22 -26 0 -5 7 -35 16 -65 l16 -56 35 82 c32 74 38 81 64 81 52
0 59 -25 59 -207 l0 -163 -50 0 -50 0 -1 53 0 52 -16 -32 c-27 -53 -64 -55
-86 -5 -11 26 -12 25 -15 -20 l-3 -48 -50 0 -49 0 5 143 c3 78 8 161 11 185 5
40 7 42 37 42 18 0 43 -7 55 -16z m612 -121 l0 -46 -22 20 c-32 29 -62 43 -92
43 -51 0 -25 19 32 23 31 2 63 4 70 5 8 1 12 -13 12 -45z m157 3 c-9 -23 -37
-20 -37 3 0 21 20 33 34 20 5 -4 6 -15 3 -23z m-282 -116 c0 -7 -6 -15 -12
-17 -8 -3 -13 4 -13 17 0 13 5 20 13 18 6 -3 12 -11 12 -18z m-175 -38 c27
-22 22 -62 -14 -106 -28 -36 -60 -31 -50 8 3 13 1 27 -5 30 -6 4 -11 21 -11
37 0 21 6 32 23 39 31 12 32 12 57 -8z"/>
<path d="M950 4304 c-40 -17 -80 -52 -80 -69 0 -6 11 -22 24 -34 22 -20 23
-29 19 -82 -6 -64 -7 -64 60 -59 15 1 27 -3 27 -9 0 -16 -35 -22 -64 -11 -43
16 -55 12 -73 -24 -19 -41 -13 -63 24 -77 88 -35 157 -28 202 21 34 36 71 145
64 188 -5 31 -4 32 32 32 l37 0 -7 -120 c-6 -90 -4 -124 5 -135 14 -17 57 -20
94 -5 26 9 26 10 26 132 0 68 4 128 8 135 4 6 23 13 42 15 34 3 35 4 38 49 4
67 -3 70 -156 63 l-130 -7 -6 -31 -6 -30 -16 22 c-34 49 -100 64 -164 36z m70
-115 c0 -6 -7 -9 -15 -5 -8 3 -15 1 -15 -4 0 -6 -10 -10 -22 -10 -22 1 -23 1
-4 15 23 18 56 20 56 4z"/>
<path d="M1504 4301 c-46 -28 -77 -99 -82 -193 -7 -116 20 -165 100 -188 47
-13 93 4 130 49 15 17 31 31 36 31 5 0 7 11 4 25 -2 14 0 25 6 25 15 0 26 60
13 73 -6 6 -11 28 -11 49 0 118 -103 186 -196 129z m75 -148 c-2 -72 -11 -118
-24 -118 -6 0 -11 15 -13 33 -4 41 16 142 29 142 5 0 8 -26 8 -57z"/>
<path d="M3945 4311 l-80 -6 0 -60 0 -60 38 -3 37 -3 0 -129 c0 -145 2 -148
80 -135 32 5 40 11 45 34 3 16 5 32 4 37 -1 5 -1 55 0 111 l1 102 37 3 c34 3
38 6 45 41 5 23 4 46 -2 58 -12 21 -35 22 -205 10z"/>
<path d="M4207 4305 c-8 -7 -19 -58 -26 -114 -7 -56 -17 -104 -22 -107 -5 -3
-6 -16 -3 -29 3 -13 0 -33 -6 -45 -16 -29 3 -73 37 -89 39 -18 87 14 90 59 5
71 25 179 43 239 l18 62 -21 13 c-33 21 -95 27 -110 11z"/>
<path d="M2983 3761 c-80 -64 -215 -209 -207 -222 4 -7 3 -9 -3 -6 -10 7 -38
-24 -77 -87 -10 -16 -13 -26 -8 -22 9 5 26 -42 22 -60 -1 -4 3 -10 10 -14 6
-4 13 -16 14 -26 2 -10 8 -19 14 -19 6 0 14 -4 19 -9 5 -5 3 -6 -4 -2 -8 4
-13 2 -13 -6 1 -18 68 -49 74 -34 2 6 5 3 5 -6 1 -9 -7 -22 -16 -27 -12 -7
-14 -10 -4 -11 9 0 12 -8 9 -25 -3 -13 -1 -22 3 -19 5 3 6 -1 4 -8 -3 -8 -20
-15 -37 -16 -17 -1 -61 -17 -97 -35 -36 -17 -73 -32 -82 -33 -9 -1 -21 -4 -28
-8 -6 -4 -15 3 -21 18 -5 14 -12 26 -15 26 -4 0 -4 -4 0 -9 3 -5 1 -13 -5 -16
-6 -4 -8 -16 -4 -28 l7 -22 -19 20 c-11 12 -15 15 -10 8 5 -7 7 -13 5 -14 -39
-7 -49 -7 -49 1 0 5 -13 7 -30 5 -24 -3 -30 0 -30 16 0 10 -4 19 -10 19 -5 0
-10 -5 -10 -11 0 -5 -12 -9 -27 -7 -29 4 -93 37 -93 49 0 8 -33 19 -75 26 -16
2 -32 9 -34 14 -1 6 -9 2 -17 -8 -12 -16 -15 -16 -24 -3 -7 11 -5 18 7 28 9 6
12 12 7 12 -11 0 -11 33 1 67 4 13 12 20 18 16 6 -3 7 -1 3 5 -4 7 -3 12 2 12
6 0 8 10 4 23 -6 23 -29 46 -47 47 -5 0 -3 -5 5 -10 8 -5 11 -10 6 -10 -6 0
-1 -7 10 -16 10 -8 13 -13 7 -9 -8 4 -11 1 -8 -7 7 -19 -50 -79 -67 -73 -18 7
-54 86 -63 140 -10 56 -6 208 6 267 8 37 15 48 26 44 8 -3 17 -6 19 -6 3 0 2
-4 -1 -10 -3 -5 -1 -10 5 -10 7 0 30 -17 52 -37 42 -39 123 -195 114 -219 -3
-7 3 -15 12 -19 14 -5 14 -7 2 -15 -20 -13 -10 -12 29 1 17 6 31 15 31 21 0 5
4 7 9 4 5 -4 11 -1 13 4 2 6 10 12 18 14 8 2 23 6 33 11 17 7 17 9 1 34 -9 14
-28 38 -43 53 -14 14 -41 45 -60 67 -46 56 -163 169 -198 192 -44 30 -70 25
-76 -13 -31 -178 -32 -253 -3 -408 9 -52 37 -142 52 -171 14 -28 14 -35 -1
-79 -9 -27 -18 -63 -20 -80 l-4 -31 20 23 c11 13 18 17 14 11 -3 -7 -1 -13 5
-13 7 0 9 -8 5 -20 -4 -13 -1 -22 9 -26 9 -3 14 -10 11 -14 -9 -14 25 -40 53
-41 25 0 25 -1 7 -10 -17 -8 -15 -8 8 -4 15 3 27 1 27 -5 0 -6 11 -8 28 -4 21
4 24 3 12 -5 -8 -6 -10 -11 -4 -11 5 0 17 6 25 13 8 6 13 11 11 10 -9 -4 -83
41 -75 46 4 3 8 23 9 43 2 49 28 88 59 88 30 0 39 -14 20 -30 -9 -7 -15 -29
-15 -55 0 -50 26 -81 61 -70 14 5 19 4 15 -4 -4 -6 -13 -11 -20 -11 -7 0 -21
-7 -32 -16 -18 -15 -18 -15 0 -10 15 5 17 4 7 -7 -9 -11 -8 -17 4 -27 8 -7 12
-17 8 -24 -4 -6 1 -5 10 3 15 12 17 12 11 -3 -4 -11 -1 -16 10 -16 10 0 16 -9
16 -25 0 -19 12 -34 45 -57 54 -38 56 -64 5 -61 -53 2 -15 -14 50 -21 52 -6
54 -6 33 9 -22 16 -32 45 -14 45 4 0 28 17 52 38 26 23 64 44 94 52 28 8 70
24 94 37 24 13 55 23 68 23 14 0 21 4 18 10 -3 6 2 13 11 17 27 10 55 41 41
46 -13 4 10 30 31 35 10 2 10 -2 2 -19 -10 -18 -10 -19 8 -10 11 6 23 7 28 3
5 -4 3 0 -3 8 -10 13 -5 15 40 14 29 0 62 5 75 13 13 8 22 9 22 3 0 -5 7 -10
15 -10 19 0 19 9 2 29 -18 22 -57 119 -57 143 0 11 11 38 24 61 60 104 88 298
67 459 -15 112 -28 158 -46 158 -7 0 -35 -17 -62 -39z m83 -146 c22 -75 18
-255 -7 -271 -5 -3 -7 -9 -4 -14 5 -9 -51 -99 -69 -112 -12 -8 -23 0 -28 21
-2 7 -13 24 -25 37 -13 13 -23 30 -23 39 0 18 -11 19 -29 3 -10 -10 -12 -10
-7 -1 4 7 -5 18 -24 28 -16 8 -30 23 -30 31 0 39 163 307 193 317 16 5 37 -25
53 -78z m-242 -74 c3 -5 -2 -15 -12 -22 -15 -12 -16 -12 -5 2 7 9 10 19 6 22
-3 4 -4 7 0 7 3 0 8 -4 11 -9z m-572 -13 c-9 -9 -8 -16 5 -30 12 -13 13 -22 6
-29 -8 -8 -13 -7 -18 2 -5 8 -4 10 3 5 7 -4 12 -2 12 3 0 6 -9 16 -20 23 -11
7 -20 16 -20 21 0 4 4 6 9 2 5 -3 12 -1 16 5 3 5 9 10 13 10 3 0 1 -5 -6 -12z
m545 -212 c0 -8 -6 -12 -15 -9 -11 5 -11 7 0 14 7 5 13 9 14 9 0 0 1 -6 1 -14z
m-18 -263 c34 -28 44 -88 20 -132 -10 -20 -19 -32 -19 -27 0 5 -9 1 -21 -10
-19 -17 -19 -19 -2 -25 10 -4 -2 -6 -26 -4 -49 4 -62 12 -41 25 12 8 10 10 -7
10 -13 0 -30 11 -38 24 -14 21 -14 31 -4 68 l13 43 6 -45 c3 -25 9 -51 13 -57
10 -16 49 -17 65 -1 17 17 15 103 -3 118 -16 14 -11 30 9 30 8 0 24 -8 35 -17z
m-294 -121 c4 -11 8 -12 19 -3 10 9 15 8 20 -4 4 -10 2 -14 -5 -9 -7 4 -9 0
-5 -14 4 -12 2 -31 -4 -42 -9 -17 -19 -20 -57 -19 -26 2 -47 8 -50 16 -3 7 -9
10 -14 7 -5 -3 -9 2 -9 10 0 9 9 16 21 16 11 0 18 4 15 8 -3 5 1 9 9 9 8 0 15
-5 15 -11 0 -6 7 -2 15 8 10 13 15 15 15 6 0 -7 3 -10 7 -7 3 4 -1 15 -10 25
-14 15 -15 19 -2 19 8 0 17 -7 20 -15z"/>
<path d="M2932 3348 c-15 -15 -16 -38 -1 -38 5 0 8 4 5 9 -3 5 1 11 9 15 16 6
21 26 7 26 -4 0 -13 -5 -20 -12z"/>
<path d="M2035 2960 c3 -5 14 -10 23 -10 15 0 15 2 2 10 -20 13 -33 13 -25 0z"/>
<path d="M3107 2886 c-58 -62 -69 -77 -64 -83 4 -3 13 -1 20 5 8 7 18 8 22 4
5 -4 5 1 2 11 -4 10 -3 16 1 13 11 -7 47 35 48 57 2 23 -3 22 -29 -7z"/>
<path d="M2716 2746 c-31 -42 -82 -74 -144 -92 -46 -14 -46 -14 -7 -8 49 7
110 37 150 74 17 15 40 31 53 35 12 3 20 11 17 16 -12 19 -44 8 -69 -25z"/>
<path d="M2256 2732 c-6 -11 70 -72 88 -72 6 0 2 5 -9 11 -11 6 -32 24 -46 41
-15 16 -30 25 -33 20z"/>
<path d="M2179 2544 c-104 -54 -134 -87 -204 -228 l-56 -111 43 -37 c24 -21
62 -46 85 -55 24 -10 43 -21 43 -25 0 -33 -96 5 -152 60 -38 36 -53 28 -24
-14 13 -18 13 -28 2 -65 -7 -24 -16 -64 -19 -89 -3 -25 -10 -70 -16 -100 -15
-85 -20 -126 -27 -246 l-7 -110 39 -32 c83 -68 204 -19 204 82 0 13 -13 47
-28 77 -28 54 -29 55 -16 134 17 115 70 255 95 255 12 0 6 -90 -17 -230 -10
-65 -11 -92 -2 -116 9 -24 7 -51 -6 -122 -9 -50 -19 -124 -22 -164 -6 -71 -6
-75 18 -90 22 -15 26 -27 33 -95 4 -43 8 -85 9 -93 2 -8 -1 -57 -4 -108 -8
-105 -21 -128 -79 -138 -40 -7 -76 -35 -97 -77 -33 -63 11 -89 148 -89 150 1
202 35 213 140 6 62 15 115 39 237 9 44 18 101 21 128 5 40 10 47 28 47 37 0
47 14 69 94 24 88 32 86 49 -12 14 -76 18 -81 69 -90 l44 -7 27 -90 c15 -50
39 -121 53 -160 14 -38 26 -87 26 -107 0 -67 20 -135 46 -159 24 -23 33 -24
150 -24 136 0 144 3 144 59 0 31 -43 79 -98 108 -18 9 -37 30 -43 45 -21 56
-45 368 -29 378 5 3 22 -1 37 -8 45 -23 102 -30 134 -16 16 6 29 16 29 21 0 6
16 8 38 5 52 -6 145 19 198 54 48 33 55 44 23 36 -16 -4 -18 -3 -8 9 6 8 8 14
3 15 -5 0 -1 4 9 8 10 4 19 11 20 16 1 6 14 20 28 33 15 12 30 36 34 52 4 16
11 32 16 35 13 8 11 35 -2 35 -6 0 -8 -7 -4 -17 4 -13 3 -15 -5 -7 -13 13 -2
46 13 37 6 -4 7 -1 2 7 -7 12 -25 -3 -70 -63 -16 -21 -16 -21 -1 5 20 34 20
37 -1 34 -10 -2 -18 -8 -18 -14 0 -16 -12 -25 -25 -17 -8 5 -8 10 0 20 8 9 7
14 -4 18 -8 3 -22 -4 -33 -16 -16 -19 -16 -20 0 -8 11 9 17 10 17 2 0 -6 -5
-11 -11 -11 -5 0 -7 -6 -3 -12 4 -7 -2 -5 -14 6 -12 10 -19 23 -15 29 3 6 1 7
-5 3 -6 -3 -9 -15 -7 -26 2 -11 0 -22 -6 -25 -5 -4 -9 -1 -9 4 0 6 -7 11 -15
11 -13 0 -14 4 -4 23 11 20 11 21 -5 8 -9 -8 -19 -11 -23 -7 -3 3 -2 6 4 6 8
0 11 59 3 80 -1 3 -1 26 0 52 1 40 -1 47 -14 42 -13 -5 -16 3 -17 42 -1 27 -1
52 0 56 0 4 -4 20 -11 35 -6 15 -13 39 -15 53 -2 14 -13 34 -24 46 -10 11 -19
24 -19 29 0 5 7 0 15 -11 14 -17 15 -15 9 26 -3 25 -8 51 -10 58 -2 7 3 27 12
44 24 46 9 45 -41 -1 -43 -39 -105 -73 -161 -87 -46 -12 -24 16 32 41 70 31
154 92 154 112 0 20 -91 174 -142 240 -31 41 -56 60 -107 84 -36 17 -80 37
-97 46 -30 14 -37 13 -130 -18 -133 -43 -215 -44 -335 -1 l-86 30 -84 -44z
m574 -5 c-26 -44 -89 -97 -153 -127 -72 -34 -134 -33 -194 2 -42 25 -126 109
-126 127 0 17 24 9 53 -18 17 -16 27 -21 23 -13 -4 8 2 2 14 -13 17 -22 25
-25 36 -16 8 6 25 8 40 5 18 -5 30 -3 35 6 6 9 9 6 9 -9 0 -26 -3 -27 -31 -13
-12 7 -25 7 -35 2 -14 -8 -11 -11 16 -21 18 -6 51 -11 73 -11 47 0 130 36 120
52 -3 7 -1 8 5 4 7 -4 35 11 64 33 64 49 75 51 51 10z m-143 -53 c0 -3 -4 -8
-10 -11 -5 -3 -10 -1 -10 4 0 6 5 11 10 11 6 0 10 -2 10 -4z m168 -280 c6 -28
-25 -49 -61 -42 -22 4 -27 3 -17 -3 8 -6 11 -13 7 -18 -4 -4 -17 -2 -28 5 -16
10 -24 10 -34 2 -21 -18 -36 -2 -28 28 7 32 22 43 45 36 9 -2 19 0 23 6 5 8
11 7 21 -1 12 -10 16 -8 21 10 5 20 7 20 27 8 11 -8 22 -22 24 -31z m-81 -92
c-3 -3 -12 -4 -19 -1 -8 3 -5 6 6 6 11 1 17 -2 13 -5z m238 -89 c30 -13 35
-21 55 -97 13 -46 25 -119 28 -164 l4 -80 -50 -42 c-61 -52 -67 -46 -64 63 1
44 -2 112 -8 150 -10 73 -14 163 -10 205 3 25 3 25 7 2 3 -15 17 -29 38 -37z
m243 -70 c-3 -3 -9 2 -12 12 -6 14 -5 15 5 6 7 -7 10 -15 7 -18z m-957 -445
c-1 -14 -8 -28 -14 -32 -5 -3 -10 -20 -9 -37 0 -24 -3 -31 -19 -31 -17 0 -18
3 -8 21 6 12 11 41 12 66 0 39 3 44 21 41 16 -2 20 -9 17 -28z m1139 15 c-6
-8 -8 -20 -4 -27 6 -10 3 -9 -9 1 -16 13 -16 14 0 27 24 18 28 17 13 -1z
m-1040 -11 c2 -3 -1 -14 -8 -25 -7 -10 -10 -30 -6 -43 7 -30 -29 -60 -56 -46
-10 5 -19 7 -22 5 -2 -2 -4 5 -5 15 -1 16 3 19 20 15 15 -4 26 0 35 15 10 17
10 20 -3 20 -9 0 -12 6 -9 15 4 9 0 15 -10 15 -9 0 -16 7 -16 16 0 13 7 15 38
9 20 -4 39 -9 42 -11z m994 8 c2 -4 -4 -8 -14 -8 -10 0 -16 4 -14 8 3 4 9 8
14 8 5 0 11 -4 14 -8z"/>
<path d="M2270 1425 c-10 -12 -10 -15 4 -15 9 0 16 7 16 15 0 8 -2 15 -4 15
-2 0 -9 -7 -16 -15z"/>
</g>
</svg>
